<svg width="31" height="44" viewBox="0 0 31 44" fill="none" xmlns="http://www.w3.org/2000/svg">
<g clip-path="url(#clip0_6_164)">
<path d="M5.52125 28.4263C5.71587 28.6216 5.865 28.8575 5.95802 29.1171C6.05103 29.3767 6.08564 29.6536 6.05937 29.9281C5.92728 31.1985 5.67745 32.4539 5.31312 33.6781C7.92875 33.0725 9.52625 32.3713 10.2519 32.0037C10.6634 31.7953 11.1374 31.7459 11.5831 31.865C12.8606 32.2069 14.1776 32.3784 15.5 32.375C22.9925 32.375 28.625 27.1119 28.625 21.125C28.625 15.1381 22.9925 9.875 15.5 9.875C8.0075 9.875 2.375 15.14 2.375 21.125C2.375 23.8775 3.53187 26.4312 5.52125 28.4263ZM4.59687 35.7481C4.15261 35.8361 3.70692 35.9167 3.26 35.99C2.885 36.05 2.6 35.66 2.74813 35.3113C2.91416 34.9184 3.06675 34.5201 3.20562 34.1169L3.21125 34.0981C3.67625 32.7481 4.055 31.1956 4.19375 29.75C1.89313 27.4438 0.5 24.425 0.5 21.125C0.5 13.8763 7.21625 8 15.5 8C23.7838 8 30.5 13.8763 30.5 21.125C30.5 28.3738 23.7838 34.25 15.5 34.25C14.0143 34.2533 12.5346 34.0604 11.0994 33.6763C10.1244 34.1694 8.02625 35.0675 4.59687 35.7481Z" fill="white"/>
<path d="M13.7488 18.5884C13.3835 17.7542 12.8435 17.1165 12.21 16.7709C11.5764 16.4254 10.8835 16.3908 10.2354 16.6723C9.58723 16.9538 9.0189 17.5362 8.61581 18.332C8.21271 19.1277 7.99662 20.0939 8.00001 21.0852C8.00034 21.9061 8.15099 22.7118 8.43621 23.4181C8.72143 24.1244 9.13076 24.7055 9.62143 25.1005C10.1121 25.4956 10.6661 25.6902 11.2256 25.6639C11.785 25.6377 12.3294 25.3916 12.8019 24.9513C12.5563 26.021 12.0988 27.1621 11.345 28.306C11.2008 28.5248 11.1218 28.8187 11.1253 29.1229C11.127 29.2736 11.149 29.4222 11.1899 29.5604C11.2308 29.6986 11.2899 29.8237 11.3638 29.9284C11.4376 30.0331 11.5248 30.1155 11.6204 30.1708C11.716 30.226 11.818 30.2532 11.9208 30.2506C12.1282 30.2455 12.3258 30.1197 12.47 29.9009C15.2563 25.6663 14.8944 21.0632 13.7488 18.5939V18.5884ZM21.2488 18.5884C20.8835 17.7542 20.3435 17.1165 19.71 16.7709C19.0764 16.4254 18.3835 16.3908 17.7354 16.6723C17.0872 16.9538 16.5189 17.5362 16.1158 18.332C15.7127 19.1277 15.4966 20.0939 15.5 21.0852C15.5003 21.9061 15.651 22.7118 15.9362 23.4181C16.2214 24.1244 16.6308 24.7055 17.1214 25.1005C17.6121 25.4956 18.1661 25.6902 18.7256 25.6639C19.285 25.6377 19.8294 25.3916 20.3019 24.9513C20.0563 26.021 19.5988 27.1621 18.845 28.306C18.7736 28.4144 18.7174 28.5423 18.6797 28.6824C18.642 28.8226 18.6235 28.9723 18.6253 29.1229C18.627 29.2736 18.649 29.4222 18.6899 29.5604C18.7308 29.6986 18.7899 29.8237 18.8638 29.9284C18.9376 30.0331 19.0248 30.1155 19.1204 30.1708C19.216 30.226 19.318 30.2532 19.4208 30.2506C19.5235 30.2481 19.6249 30.2159 19.7191 30.1559C19.8133 30.0959 19.8986 30.0092 19.97 29.9009C22.7563 25.6663 22.3944 21.0632 21.2488 18.5939V18.5884Z" fill="white"/>
</g>
<defs>
<clipPath id="clip0_6_164">
<rect width="30" height="43.9962" fill="white" transform="translate(0.5)"/>
</clipPath>
</defs>
</svg>
