<svg width="1398" height="723" viewBox="0 0 1398 723" fill="none" xmlns="http://www.w3.org/2000/svg">
<path d="M526.812 594.312C529.597 594.312 532.381 594.312 535.25 594.312C535.25 595.55 535.25 596.787 535.25 598.062C534.631 598.062 534.012 598.062 533.375 598.062C533.375 597.444 533.375 596.825 533.375 596.188C531.209 596.188 529.044 596.188 526.812 596.188C526.812 595.569 526.812 594.95 526.812 594.312Z" fill="white" fill-opacity="0.2"/>
<path d="M512.75 594.312C515.534 594.312 518.319 594.312 521.188 594.312C521.188 594.931 521.188 595.55 521.188 596.188C519.022 596.188 516.856 596.188 514.625 596.188C514.625 596.806 514.625 597.425 514.625 598.062C514.006 598.062 513.387 598.062 512.75 598.062C512.75 596.825 512.75 595.587 512.75 594.312Z" fill="white" fill-opacity="0.2"/>
<path d="M532.438 607.438C533.056 607.438 533.675 607.438 534.312 607.438C534.312 608.675 534.312 609.912 534.312 611.188C532.766 611.188 531.219 611.188 529.625 611.188C529.625 610.569 529.625 609.95 529.625 609.312C530.553 609.312 531.481 609.312 532.438 609.312C532.438 608.694 532.438 608.075 532.438 607.438Z" fill="white" fill-opacity="0.2"/>
<path d="M513.688 607.438C514.306 607.438 514.925 607.438 515.562 607.438C515.562 608.056 515.562 608.675 515.562 609.312C516.491 609.312 517.419 609.312 518.375 609.312C518.375 609.931 518.375 610.55 518.375 611.188C516.828 611.188 515.281 611.188 513.688 611.188C513.688 609.95 513.688 608.712 513.688 607.438Z" fill="white" fill-opacity="0.2"/>
<path d="M524.938 589.625C525.556 589.625 526.175 589.625 526.812 589.625C526.812 591.172 526.812 592.719 526.812 594.312C526.194 594.312 525.575 594.312 524.938 594.312C524.938 592.766 524.938 591.219 524.938 589.625Z" fill="white" fill-opacity="0.2"/>
<path d="M521.188 589.625C521.806 589.625 522.425 589.625 523.062 589.625C523.062 591.172 523.062 592.719 523.062 594.312C522.444 594.312 521.825 594.312 521.188 594.312C521.188 592.766 521.188 591.219 521.188 589.625Z" fill="white" fill-opacity="0.2"/>
<path d="M525.875 607.438C527.112 607.438 528.35 607.438 529.625 607.438C529.625 608.056 529.625 608.675 529.625 609.312C528.388 609.312 527.15 609.312 525.875 609.312C525.875 608.694 525.875 608.075 525.875 607.438Z" fill="white" fill-opacity="0.2"/>
<path d="M518.375 607.438C519.612 607.438 520.85 607.438 522.125 607.438C522.125 608.056 522.125 608.675 522.125 609.312C520.888 609.312 519.65 609.312 518.375 609.312C518.375 608.694 518.375 608.075 518.375 607.438Z" fill="white" fill-opacity="0.2"/>
<path d="M522.125 605.562C523.362 605.562 524.6 605.562 525.875 605.562C525.875 606.181 525.875 606.8 525.875 607.438C524.638 607.438 523.4 607.438 522.125 607.438C522.125 606.819 522.125 606.2 522.125 605.562Z" fill="white" fill-opacity="0.2"/>
<path d="M530.562 603.688C531.181 603.688 531.8 603.688 532.438 603.688C532.438 604.925 532.438 606.162 532.438 607.438C531.819 607.438 531.2 607.438 530.562 607.438C530.562 606.2 530.562 604.962 530.562 603.688Z" fill="white" fill-opacity="0.2"/>
<path d="M515.562 603.688C516.181 603.688 516.8 603.688 517.438 603.688C517.438 604.925 517.438 606.162 517.438 607.438C516.819 607.438 516.2 607.438 515.562 607.438C515.562 606.2 515.562 604.962 515.562 603.688Z" fill="white" fill-opacity="0.2"/>
<path d="M528.688 599.938C529.306 599.938 529.925 599.938 530.562 599.938C530.562 601.175 530.562 602.412 530.562 603.688C529.944 603.688 529.325 603.688 528.688 603.688C528.688 602.45 528.688 601.212 528.688 599.938Z" fill="white" fill-opacity="0.2"/>
<path d="M517.438 599.938C518.056 599.938 518.675 599.938 519.312 599.938C519.312 601.175 519.312 602.412 519.312 603.688C518.694 603.688 518.075 603.688 517.438 603.688C517.438 602.45 517.438 601.212 517.438 599.938Z" fill="white" fill-opacity="0.2"/>
<path d="M523.062 585.875C523.681 585.875 524.3 585.875 524.938 585.875C524.938 587.112 524.938 588.35 524.938 589.625C524.319 589.625 523.7 589.625 523.062 589.625C523.062 588.388 523.062 587.15 523.062 585.875Z" fill="white" fill-opacity="0.2"/>
<path d="M530.562 598.062C531.491 598.062 532.419 598.062 533.375 598.062C533.375 598.681 533.375 599.3 533.375 599.938C532.447 599.938 531.519 599.938 530.562 599.938C530.562 599.319 530.562 598.7 530.562 598.062Z" fill="white" fill-opacity="0.2"/>
<path d="M514.625 598.062C515.553 598.062 516.481 598.062 517.438 598.062C517.438 598.681 517.438 599.3 517.438 599.938C516.509 599.938 515.581 599.938 514.625 599.938C514.625 599.319 514.625 598.7 514.625 598.062Z" fill="white" fill-opacity="0.2"/>
<path d="M750.812 415.312C753.597 415.312 756.381 415.312 759.25 415.312C759.25 416.55 759.25 417.787 759.25 419.062C758.631 419.062 758.012 419.062 757.375 419.062C757.375 418.444 757.375 417.825 757.375 417.188C755.209 417.188 753.044 417.188 750.812 417.188C750.812 416.569 750.812 415.95 750.812 415.312Z" fill="white" fill-opacity="0.2"/>
<path d="M736.75 415.312C739.534 415.312 742.319 415.312 745.188 415.312C745.188 415.931 745.188 416.55 745.188 417.188C743.022 417.188 740.856 417.188 738.625 417.188C738.625 417.806 738.625 418.425 738.625 419.062C738.006 419.062 737.387 419.062 736.75 419.062C736.75 417.825 736.75 416.587 736.75 415.312Z" fill="white" fill-opacity="0.2"/>
<path d="M756.438 428.438C757.056 428.438 757.675 428.438 758.312 428.438C758.312 429.675 758.312 430.912 758.312 432.188C756.766 432.188 755.219 432.188 753.625 432.188C753.625 431.569 753.625 430.95 753.625 430.312C754.553 430.312 755.481 430.312 756.438 430.312C756.438 429.694 756.438 429.075 756.438 428.438Z" fill="white" fill-opacity="0.2"/>
<path d="M737.688 428.438C738.306 428.438 738.925 428.438 739.562 428.438C739.562 429.056 739.562 429.675 739.562 430.312C740.491 430.312 741.419 430.312 742.375 430.312C742.375 430.931 742.375 431.55 742.375 432.188C740.828 432.188 739.281 432.188 737.688 432.188C737.688 430.95 737.688 429.712 737.688 428.438Z" fill="white" fill-opacity="0.2"/>
<path d="M748.938 410.625C749.556 410.625 750.175 410.625 750.812 410.625C750.812 412.172 750.812 413.719 750.812 415.312C750.194 415.312 749.575 415.312 748.938 415.312C748.938 413.766 748.938 412.219 748.938 410.625Z" fill="white" fill-opacity="0.2"/>
<path d="M745.188 410.625C745.806 410.625 746.425 410.625 747.062 410.625C747.062 412.172 747.062 413.719 747.062 415.312C746.444 415.312 745.825 415.312 745.188 415.312C745.188 413.766 745.188 412.219 745.188 410.625Z" fill="white" fill-opacity="0.2"/>
<path d="M749.875 428.438C751.112 428.438 752.35 428.438 753.625 428.438C753.625 429.056 753.625 429.675 753.625 430.312C752.388 430.312 751.15 430.312 749.875 430.312C749.875 429.694 749.875 429.075 749.875 428.438Z" fill="white" fill-opacity="0.2"/>
<path d="M742.375 428.438C743.612 428.438 744.85 428.438 746.125 428.438C746.125 429.056 746.125 429.675 746.125 430.312C744.888 430.312 743.65 430.312 742.375 430.312C742.375 429.694 742.375 429.075 742.375 428.438Z" fill="white" fill-opacity="0.2"/>
<path d="M746.125 426.562C747.362 426.562 748.6 426.562 749.875 426.562C749.875 427.181 749.875 427.8 749.875 428.438C748.638 428.438 747.4 428.438 746.125 428.438C746.125 427.819 746.125 427.2 746.125 426.562Z" fill="white" fill-opacity="0.2"/>
<path d="M754.562 424.688C755.181 424.688 755.8 424.688 756.438 424.688C756.438 425.925 756.438 427.162 756.438 428.438C755.819 428.438 755.2 428.438 754.562 428.438C754.562 427.2 754.562 425.962 754.562 424.688Z" fill="white" fill-opacity="0.2"/>
<path d="M739.562 424.688C740.181 424.688 740.8 424.688 741.438 424.688C741.438 425.925 741.438 427.162 741.438 428.438C740.819 428.438 740.2 428.438 739.562 428.438C739.562 427.2 739.562 425.962 739.562 424.688Z" fill="white" fill-opacity="0.2"/>
<path d="M752.688 420.938C753.306 420.938 753.925 420.938 754.562 420.938C754.562 422.175 754.562 423.412 754.562 424.688C753.944 424.688 753.325 424.688 752.688 424.688C752.688 423.45 752.688 422.212 752.688 420.938Z" fill="white" fill-opacity="0.2"/>
<path d="M741.438 420.938C742.056 420.938 742.675 420.938 743.312 420.938C743.312 422.175 743.312 423.412 743.312 424.688C742.694 424.688 742.075 424.688 741.438 424.688C741.438 423.45 741.438 422.212 741.438 420.938Z" fill="white" fill-opacity="0.2"/>
<path d="M747.062 406.875C747.681 406.875 748.3 406.875 748.938 406.875C748.938 408.112 748.938 409.35 748.938 410.625C748.319 410.625 747.7 410.625 747.062 410.625C747.062 409.388 747.062 408.15 747.062 406.875Z" fill="white" fill-opacity="0.2"/>
<path d="M754.562 419.062C755.491 419.062 756.419 419.062 757.375 419.062C757.375 419.681 757.375 420.3 757.375 420.938C756.447 420.938 755.519 420.938 754.562 420.938C754.562 420.319 754.562 419.7 754.562 419.062Z" fill="white" fill-opacity="0.2"/>
<path d="M738.625 419.062C739.553 419.062 740.481 419.062 741.438 419.062C741.438 419.681 741.438 420.3 741.438 420.938C740.509 420.938 739.581 420.938 738.625 420.938C738.625 420.319 738.625 419.7 738.625 419.062Z" fill="white" fill-opacity="0.2"/>
<path d="M638.812 675.312C641.597 675.312 644.381 675.312 647.25 675.312C647.25 676.55 647.25 677.787 647.25 679.062C646.631 679.062 646.012 679.062 645.375 679.062C645.375 678.444 645.375 677.825 645.375 677.188C643.209 677.188 641.044 677.188 638.812 677.188C638.812 676.569 638.812 675.95 638.812 675.312Z" fill="white" fill-opacity="0.2"/>
<path d="M624.75 675.312C627.534 675.312 630.319 675.312 633.188 675.312C633.188 675.931 633.188 676.55 633.188 677.188C631.022 677.188 628.856 677.188 626.625 677.188C626.625 677.806 626.625 678.425 626.625 679.062C626.006 679.062 625.387 679.062 624.75 679.062C624.75 677.825 624.75 676.587 624.75 675.312Z" fill="white" fill-opacity="0.2"/>
<path d="M644.438 688.438C645.056 688.438 645.675 688.438 646.312 688.438C646.312 689.675 646.312 690.912 646.312 692.188C644.766 692.188 643.219 692.188 641.625 692.188C641.625 691.569 641.625 690.95 641.625 690.312C642.553 690.312 643.481 690.312 644.438 690.312C644.438 689.694 644.438 689.075 644.438 688.438Z" fill="white" fill-opacity="0.2"/>
<path d="M625.688 688.438C626.306 688.438 626.925 688.438 627.562 688.438C627.562 689.056 627.562 689.675 627.562 690.312C628.491 690.312 629.419 690.312 630.375 690.312C630.375 690.931 630.375 691.55 630.375 692.188C628.828 692.188 627.281 692.188 625.688 692.188C625.688 690.95 625.688 689.712 625.688 688.438Z" fill="white" fill-opacity="0.2"/>
<path d="M636.938 670.625C637.556 670.625 638.175 670.625 638.812 670.625C638.812 672.172 638.812 673.719 638.812 675.312C638.194 675.312 637.575 675.312 636.938 675.312C636.938 673.766 636.938 672.219 636.938 670.625Z" fill="white" fill-opacity="0.2"/>
<path d="M633.188 670.625C633.806 670.625 634.425 670.625 635.062 670.625C635.062 672.172 635.062 673.719 635.062 675.312C634.444 675.312 633.825 675.312 633.188 675.312C633.188 673.766 633.188 672.219 633.188 670.625Z" fill="white" fill-opacity="0.2"/>
<path d="M637.875 688.438C639.112 688.438 640.35 688.438 641.625 688.438C641.625 689.056 641.625 689.675 641.625 690.312C640.388 690.312 639.15 690.312 637.875 690.312C637.875 689.694 637.875 689.075 637.875 688.438Z" fill="white" fill-opacity="0.2"/>
<path d="M630.375 688.438C631.612 688.438 632.85 688.438 634.125 688.438C634.125 689.056 634.125 689.675 634.125 690.312C632.888 690.312 631.65 690.312 630.375 690.312C630.375 689.694 630.375 689.075 630.375 688.438Z" fill="white" fill-opacity="0.2"/>
<path d="M634.125 686.562C635.362 686.562 636.6 686.562 637.875 686.562C637.875 687.181 637.875 687.8 637.875 688.438C636.638 688.438 635.4 688.438 634.125 688.438C634.125 687.819 634.125 687.2 634.125 686.562Z" fill="white" fill-opacity="0.2"/>
<path d="M642.562 684.688C643.181 684.688 643.8 684.688 644.438 684.688C644.438 685.925 644.438 687.162 644.438 688.438C643.819 688.438 643.2 688.438 642.562 688.438C642.562 687.2 642.562 685.962 642.562 684.688Z" fill="white" fill-opacity="0.2"/>
<path d="M627.562 684.688C628.181 684.688 628.8 684.688 629.438 684.688C629.438 685.925 629.438 687.162 629.438 688.438C628.819 688.438 628.2 688.438 627.562 688.438C627.562 687.2 627.562 685.962 627.562 684.688Z" fill="white" fill-opacity="0.2"/>
<path d="M640.688 680.938C641.306 680.938 641.925 680.938 642.562 680.938C642.562 682.175 642.562 683.412 642.562 684.688C641.944 684.688 641.325 684.688 640.688 684.688C640.688 683.45 640.688 682.212 640.688 680.938Z" fill="white" fill-opacity="0.2"/>
<path d="M629.438 680.938C630.056 680.938 630.675 680.938 631.312 680.938C631.312 682.175 631.312 683.412 631.312 684.688C630.694 684.688 630.075 684.688 629.438 684.688C629.438 683.45 629.438 682.212 629.438 680.938Z" fill="white" fill-opacity="0.2"/>
<path d="M635.062 666.875C635.681 666.875 636.3 666.875 636.938 666.875C636.938 668.112 636.938 669.35 636.938 670.625C636.319 670.625 635.7 670.625 635.062 670.625C635.062 669.388 635.062 668.15 635.062 666.875Z" fill="white" fill-opacity="0.2"/>
<path d="M642.562 679.062C643.491 679.062 644.419 679.062 645.375 679.062C645.375 679.681 645.375 680.3 645.375 680.938C644.447 680.938 643.519 680.938 642.562 680.938C642.562 680.319 642.562 679.7 642.562 679.062Z" fill="white" fill-opacity="0.2"/>
<path d="M626.625 679.062C627.553 679.062 628.481 679.062 629.438 679.062C629.438 679.681 629.438 680.3 629.438 680.938C628.509 680.938 627.581 680.938 626.625 680.938C626.625 680.319 626.625 679.7 626.625 679.062Z" fill="white" fill-opacity="0.2"/>
<path d="M237.812 705.312C240.597 705.312 243.381 705.312 246.25 705.312C246.25 706.55 246.25 707.787 246.25 709.062C245.631 709.062 245.012 709.062 244.375 709.062C244.375 708.444 244.375 707.825 244.375 707.188C242.209 707.188 240.044 707.188 237.812 707.188C237.812 706.569 237.812 705.95 237.812 705.312Z" fill="white" fill-opacity="0.2"/>
<path d="M223.75 705.312C226.534 705.312 229.319 705.312 232.188 705.312C232.188 705.931 232.188 706.55 232.188 707.188C230.022 707.188 227.856 707.188 225.625 707.188C225.625 707.806 225.625 708.425 225.625 709.062C225.006 709.062 224.387 709.062 223.75 709.062C223.75 707.825 223.75 706.587 223.75 705.312Z" fill="white" fill-opacity="0.2"/>
<path d="M243.438 718.438C244.056 718.438 244.675 718.438 245.312 718.438C245.312 719.675 245.312 720.912 245.312 722.188C243.766 722.188 242.219 722.188 240.625 722.188C240.625 721.569 240.625 720.95 240.625 720.312C241.553 720.312 242.481 720.312 243.438 720.312C243.438 719.694 243.438 719.075 243.438 718.438Z" fill="white" fill-opacity="0.2"/>
<path d="M224.688 718.438C225.306 718.438 225.925 718.438 226.562 718.438C226.562 719.056 226.562 719.675 226.562 720.312C227.491 720.312 228.419 720.312 229.375 720.312C229.375 720.931 229.375 721.55 229.375 722.188C227.828 722.188 226.281 722.188 224.688 722.188C224.688 720.95 224.688 719.712 224.688 718.438Z" fill="white" fill-opacity="0.2"/>
<path d="M235.938 700.625C236.556 700.625 237.175 700.625 237.812 700.625C237.812 702.172 237.812 703.719 237.812 705.312C237.194 705.312 236.575 705.312 235.938 705.312C235.938 703.766 235.938 702.219 235.938 700.625Z" fill="white" fill-opacity="0.2"/>
<path d="M232.188 700.625C232.806 700.625 233.425 700.625 234.062 700.625C234.062 702.172 234.062 703.719 234.062 705.312C233.444 705.312 232.825 705.312 232.188 705.312C232.188 703.766 232.188 702.219 232.188 700.625Z" fill="white" fill-opacity="0.2"/>
<path d="M236.875 718.438C238.112 718.438 239.35 718.438 240.625 718.438C240.625 719.056 240.625 719.675 240.625 720.312C239.388 720.312 238.15 720.312 236.875 720.312C236.875 719.694 236.875 719.075 236.875 718.438Z" fill="white" fill-opacity="0.2"/>
<path d="M229.375 718.438C230.612 718.438 231.85 718.438 233.125 718.438C233.125 719.056 233.125 719.675 233.125 720.312C231.888 720.312 230.65 720.312 229.375 720.312C229.375 719.694 229.375 719.075 229.375 718.438Z" fill="white" fill-opacity="0.2"/>
<path d="M233.125 716.562C234.362 716.562 235.6 716.562 236.875 716.562C236.875 717.181 236.875 717.8 236.875 718.438C235.638 718.438 234.4 718.438 233.125 718.438C233.125 717.819 233.125 717.2 233.125 716.562Z" fill="white" fill-opacity="0.2"/>
<path d="M241.562 714.688C242.181 714.688 242.8 714.688 243.438 714.688C243.438 715.925 243.438 717.162 243.438 718.438C242.819 718.438 242.2 718.438 241.562 718.438C241.562 717.2 241.562 715.962 241.562 714.688Z" fill="white" fill-opacity="0.2"/>
<path d="M226.562 714.688C227.181 714.688 227.8 714.688 228.438 714.688C228.438 715.925 228.438 717.162 228.438 718.438C227.819 718.438 227.2 718.438 226.562 718.438C226.562 717.2 226.562 715.962 226.562 714.688Z" fill="white" fill-opacity="0.2"/>
<path d="M239.688 710.938C240.306 710.938 240.925 710.938 241.562 710.938C241.562 712.175 241.562 713.412 241.562 714.688C240.944 714.688 240.325 714.688 239.688 714.688C239.688 713.45 239.688 712.212 239.688 710.938Z" fill="white" fill-opacity="0.2"/>
<path d="M228.438 710.938C229.056 710.938 229.675 710.938 230.312 710.938C230.312 712.175 230.312 713.412 230.312 714.688C229.694 714.688 229.075 714.688 228.438 714.688C228.438 713.45 228.438 712.212 228.438 710.938Z" fill="white" fill-opacity="0.2"/>
<path d="M234.062 696.875C234.681 696.875 235.3 696.875 235.938 696.875C235.938 698.112 235.938 699.35 235.938 700.625C235.319 700.625 234.7 700.625 234.062 700.625C234.062 699.388 234.062 698.15 234.062 696.875Z" fill="white" fill-opacity="0.2"/>
<path d="M241.562 709.062C242.491 709.062 243.419 709.062 244.375 709.062C244.375 709.681 244.375 710.3 244.375 710.938C243.447 710.938 242.519 710.938 241.562 710.938C241.562 710.319 241.562 709.7 241.562 709.062Z" fill="white" fill-opacity="0.2"/>
<path d="M225.625 709.062C226.553 709.062 227.481 709.062 228.438 709.062C228.438 709.681 228.438 710.3 228.438 710.938C227.509 710.938 226.581 710.938 225.625 710.938C225.625 710.319 225.625 709.7 225.625 709.062Z" fill="white" fill-opacity="0.2"/>
<path d="M102.812 645.312C105.597 645.312 108.381 645.312 111.25 645.312C111.25 646.55 111.25 647.787 111.25 649.062C110.631 649.062 110.012 649.062 109.375 649.062C109.375 648.444 109.375 647.825 109.375 647.188C107.209 647.188 105.044 647.188 102.812 647.188C102.812 646.569 102.812 645.95 102.812 645.312Z" fill="white" fill-opacity="0.2"/>
<path d="M88.75 645.312C91.5344 645.312 94.3187 645.312 97.1875 645.312C97.1875 645.931 97.1875 646.55 97.1875 647.188C95.0219 647.188 92.8562 647.188 90.625 647.188C90.625 647.806 90.625 648.425 90.625 649.062C90.0063 649.062 89.3875 649.062 88.75 649.062C88.75 647.825 88.75 646.587 88.75 645.312Z" fill="white" fill-opacity="0.2"/>
<path d="M108.438 658.438C109.056 658.438 109.675 658.438 110.312 658.438C110.312 659.675 110.312 660.912 110.312 662.188C108.766 662.188 107.219 662.188 105.625 662.188C105.625 661.569 105.625 660.95 105.625 660.312C106.553 660.312 107.481 660.312 108.438 660.312C108.438 659.694 108.438 659.075 108.438 658.438Z" fill="white" fill-opacity="0.2"/>
<path d="M89.6875 658.438C90.3062 658.438 90.925 658.438 91.5625 658.438C91.5625 659.056 91.5625 659.675 91.5625 660.312C92.4906 660.312 93.4188 660.312 94.375 660.312C94.375 660.931 94.375 661.55 94.375 662.188C92.8281 662.188 91.2812 662.188 89.6875 662.188C89.6875 660.95 89.6875 659.712 89.6875 658.438Z" fill="white" fill-opacity="0.2"/>
<path d="M100.938 640.625C101.556 640.625 102.175 640.625 102.812 640.625C102.812 642.172 102.812 643.719 102.812 645.312C102.194 645.312 101.575 645.312 100.938 645.312C100.938 643.766 100.938 642.219 100.938 640.625Z" fill="white" fill-opacity="0.2"/>
<path d="M97.1875 640.625C97.8062 640.625 98.425 640.625 99.0625 640.625C99.0625 642.172 99.0625 643.719 99.0625 645.312C98.4438 645.312 97.825 645.312 97.1875 645.312C97.1875 643.766 97.1875 642.219 97.1875 640.625Z" fill="white" fill-opacity="0.2"/>
<path d="M101.875 658.438C103.112 658.438 104.35 658.438 105.625 658.438C105.625 659.056 105.625 659.675 105.625 660.312C104.388 660.312 103.15 660.312 101.875 660.312C101.875 659.694 101.875 659.075 101.875 658.438Z" fill="white" fill-opacity="0.2"/>
<path d="M94.375 658.438C95.6125 658.438 96.85 658.438 98.125 658.438C98.125 659.056 98.125 659.675 98.125 660.312C96.8875 660.312 95.65 660.312 94.375 660.312C94.375 659.694 94.375 659.075 94.375 658.438Z" fill="white" fill-opacity="0.2"/>
<path d="M98.125 656.562C99.3625 656.562 100.6 656.562 101.875 656.562C101.875 657.181 101.875 657.8 101.875 658.438C100.638 658.438 99.4 658.438 98.125 658.438C98.125 657.819 98.125 657.2 98.125 656.562Z" fill="white" fill-opacity="0.2"/>
<path d="M106.562 654.688C107.181 654.688 107.8 654.688 108.438 654.688C108.438 655.925 108.438 657.162 108.438 658.438C107.819 658.438 107.2 658.438 106.562 658.438C106.562 657.2 106.562 655.962 106.562 654.688Z" fill="white" fill-opacity="0.2"/>
<path d="M91.5625 654.688C92.1812 654.688 92.8 654.688 93.4375 654.688C93.4375 655.925 93.4375 657.162 93.4375 658.438C92.8188 658.438 92.2 658.438 91.5625 658.438C91.5625 657.2 91.5625 655.962 91.5625 654.688Z" fill="white" fill-opacity="0.2"/>
<path d="M104.688 650.938C105.306 650.938 105.925 650.938 106.562 650.938C106.562 652.175 106.562 653.412 106.562 654.688C105.944 654.688 105.325 654.688 104.688 654.688C104.688 653.45 104.688 652.212 104.688 650.938Z" fill="white" fill-opacity="0.2"/>
<path d="M93.4375 650.938C94.0562 650.938 94.675 650.938 95.3125 650.938C95.3125 652.175 95.3125 653.412 95.3125 654.688C94.6938 654.688 94.075 654.688 93.4375 654.688C93.4375 653.45 93.4375 652.212 93.4375 650.938Z" fill="white" fill-opacity="0.2"/>
<path d="M99.0625 636.875C99.6812 636.875 100.3 636.875 100.938 636.875C100.938 638.112 100.938 639.35 100.938 640.625C100.319 640.625 99.7 640.625 99.0625 640.625C99.0625 639.388 99.0625 638.15 99.0625 636.875Z" fill="white" fill-opacity="0.2"/>
<path d="M106.562 649.062C107.491 649.062 108.419 649.062 109.375 649.062C109.375 649.681 109.375 650.3 109.375 650.938C108.447 650.938 107.519 650.938 106.562 650.938C106.562 650.319 106.562 649.7 106.562 649.062Z" fill="white" fill-opacity="0.2"/>
<path d="M90.625 649.062C91.5531 649.062 92.4813 649.062 93.4375 649.062C93.4375 649.681 93.4375 650.3 93.4375 650.938C92.5094 650.938 91.5812 650.938 90.625 650.938C90.625 650.319 90.625 649.7 90.625 649.062Z" fill="white" fill-opacity="0.2"/>
<path d="M967.812 461.312C970.597 461.312 973.381 461.312 976.25 461.312C976.25 462.55 976.25 463.787 976.25 465.062C975.631 465.062 975.012 465.062 974.375 465.062C974.375 464.444 974.375 463.825 974.375 463.188C972.209 463.188 970.044 463.188 967.812 463.188C967.812 462.569 967.812 461.95 967.812 461.312Z" fill="white" fill-opacity="0.2"/>
<path d="M953.75 461.312C956.534 461.312 959.319 461.312 962.188 461.312C962.188 461.931 962.188 462.55 962.188 463.188C960.022 463.188 957.856 463.188 955.625 463.188C955.625 463.806 955.625 464.425 955.625 465.062C955.006 465.062 954.387 465.062 953.75 465.062C953.75 463.825 953.75 462.587 953.75 461.312Z" fill="white" fill-opacity="0.2"/>
<path d="M973.438 474.438C974.056 474.438 974.675 474.438 975.312 474.438C975.312 475.675 975.312 476.912 975.312 478.188C973.766 478.188 972.219 478.188 970.625 478.188C970.625 477.569 970.625 476.95 970.625 476.312C971.553 476.312 972.481 476.312 973.438 476.312C973.438 475.694 973.438 475.075 973.438 474.438Z" fill="white" fill-opacity="0.2"/>
<path d="M954.688 474.438C955.306 474.438 955.925 474.438 956.562 474.438C956.562 475.056 956.562 475.675 956.562 476.312C957.491 476.312 958.419 476.312 959.375 476.312C959.375 476.931 959.375 477.55 959.375 478.188C957.828 478.188 956.281 478.188 954.688 478.188C954.688 476.95 954.688 475.712 954.688 474.438Z" fill="white" fill-opacity="0.2"/>
<path d="M965.938 456.625C966.556 456.625 967.175 456.625 967.812 456.625C967.812 458.172 967.812 459.719 967.812 461.312C967.194 461.312 966.575 461.312 965.938 461.312C965.938 459.766 965.938 458.219 965.938 456.625Z" fill="white" fill-opacity="0.2"/>
<path d="M962.188 456.625C962.806 456.625 963.425 456.625 964.062 456.625C964.062 458.172 964.062 459.719 964.062 461.312C963.444 461.312 962.825 461.312 962.188 461.312C962.188 459.766 962.188 458.219 962.188 456.625Z" fill="white" fill-opacity="0.2"/>
<path d="M966.875 474.438C968.112 474.438 969.35 474.438 970.625 474.438C970.625 475.056 970.625 475.675 970.625 476.312C969.388 476.312 968.15 476.312 966.875 476.312C966.875 475.694 966.875 475.075 966.875 474.438Z" fill="white" fill-opacity="0.2"/>
<path d="M959.375 474.438C960.612 474.438 961.85 474.438 963.125 474.438C963.125 475.056 963.125 475.675 963.125 476.312C961.888 476.312 960.65 476.312 959.375 476.312C959.375 475.694 959.375 475.075 959.375 474.438Z" fill="white" fill-opacity="0.2"/>
<path d="M963.125 472.562C964.362 472.562 965.6 472.562 966.875 472.562C966.875 473.181 966.875 473.8 966.875 474.438C965.638 474.438 964.4 474.438 963.125 474.438C963.125 473.819 963.125 473.2 963.125 472.562Z" fill="white" fill-opacity="0.2"/>
<path d="M971.562 470.688C972.181 470.688 972.8 470.688 973.438 470.688C973.438 471.925 973.438 473.162 973.438 474.438C972.819 474.438 972.2 474.438 971.562 474.438C971.562 473.2 971.562 471.962 971.562 470.688Z" fill="white" fill-opacity="0.2"/>
<path d="M956.562 470.688C957.181 470.688 957.8 470.688 958.438 470.688C958.438 471.925 958.438 473.162 958.438 474.438C957.819 474.438 957.2 474.438 956.562 474.438C956.562 473.2 956.562 471.962 956.562 470.688Z" fill="white" fill-opacity="0.2"/>
<path d="M969.688 466.938C970.306 466.938 970.925 466.938 971.562 466.938C971.562 468.175 971.562 469.412 971.562 470.688C970.944 470.688 970.325 470.688 969.688 470.688C969.688 469.45 969.688 468.212 969.688 466.938Z" fill="white" fill-opacity="0.2"/>
<path d="M958.438 466.938C959.056 466.938 959.675 466.938 960.312 466.938C960.312 468.175 960.312 469.412 960.312 470.688C959.694 470.688 959.075 470.688 958.438 470.688C958.438 469.45 958.438 468.212 958.438 466.938Z" fill="white" fill-opacity="0.2"/>
<path d="M964.062 452.875C964.681 452.875 965.3 452.875 965.938 452.875C965.938 454.112 965.938 455.35 965.938 456.625C965.319 456.625 964.7 456.625 964.062 456.625C964.062 455.388 964.062 454.15 964.062 452.875Z" fill="white" fill-opacity="0.2"/>
<path d="M971.562 465.062C972.491 465.062 973.419 465.062 974.375 465.062C974.375 465.681 974.375 466.3 974.375 466.938C973.447 466.938 972.519 466.938 971.562 466.938C971.562 466.319 971.562 465.7 971.562 465.062Z" fill="white" fill-opacity="0.2"/>
<path d="M955.625 465.062C956.553 465.062 957.481 465.062 958.438 465.062C958.438 465.681 958.438 466.3 958.438 466.938C957.509 466.938 956.581 466.938 955.625 466.938C955.625 466.319 955.625 465.7 955.625 465.062Z" fill="white" fill-opacity="0.2"/>
<path d="M886.812 224.312C889.597 224.312 892.381 224.312 895.25 224.312C895.25 225.55 895.25 226.787 895.25 228.062C894.631 228.062 894.012 228.062 893.375 228.062C893.375 227.444 893.375 226.825 893.375 226.188C891.209 226.188 889.044 226.188 886.812 226.188C886.812 225.569 886.812 224.95 886.812 224.312Z" fill="white" fill-opacity="0.2"/>
<path d="M872.75 224.312C875.534 224.312 878.319 224.312 881.188 224.312C881.188 224.931 881.188 225.55 881.188 226.188C879.022 226.188 876.856 226.188 874.625 226.188C874.625 226.806 874.625 227.425 874.625 228.062C874.006 228.062 873.387 228.062 872.75 228.062C872.75 226.825 872.75 225.587 872.75 224.312Z" fill="white" fill-opacity="0.2"/>
<path d="M892.438 237.438C893.056 237.438 893.675 237.438 894.312 237.438C894.312 238.675 894.312 239.912 894.312 241.188C892.766 241.188 891.219 241.188 889.625 241.188C889.625 240.569 889.625 239.95 889.625 239.312C890.553 239.312 891.481 239.312 892.438 239.312C892.438 238.694 892.438 238.075 892.438 237.438Z" fill="white" fill-opacity="0.2"/>
<path d="M873.688 237.438C874.306 237.438 874.925 237.438 875.562 237.438C875.562 238.056 875.562 238.675 875.562 239.312C876.491 239.312 877.419 239.312 878.375 239.312C878.375 239.931 878.375 240.55 878.375 241.188C876.828 241.188 875.281 241.188 873.688 241.188C873.688 239.95 873.688 238.712 873.688 237.438Z" fill="white" fill-opacity="0.2"/>
<path d="M884.938 219.625C885.556 219.625 886.175 219.625 886.812 219.625C886.812 221.172 886.812 222.719 886.812 224.312C886.194 224.312 885.575 224.312 884.938 224.312C884.938 222.766 884.938 221.219 884.938 219.625Z" fill="white" fill-opacity="0.2"/>
<path d="M881.188 219.625C881.806 219.625 882.425 219.625 883.062 219.625C883.062 221.172 883.062 222.719 883.062 224.312C882.444 224.312 881.825 224.312 881.188 224.312C881.188 222.766 881.188 221.219 881.188 219.625Z" fill="white" fill-opacity="0.2"/>
<path d="M885.875 237.438C887.112 237.438 888.35 237.438 889.625 237.438C889.625 238.056 889.625 238.675 889.625 239.312C888.388 239.312 887.15 239.312 885.875 239.312C885.875 238.694 885.875 238.075 885.875 237.438Z" fill="white" fill-opacity="0.2"/>
<path d="M878.375 237.438C879.612 237.438 880.85 237.438 882.125 237.438C882.125 238.056 882.125 238.675 882.125 239.312C880.888 239.312 879.65 239.312 878.375 239.312C878.375 238.694 878.375 238.075 878.375 237.438Z" fill="white" fill-opacity="0.2"/>
<path d="M882.125 235.562C883.362 235.562 884.6 235.562 885.875 235.562C885.875 236.181 885.875 236.8 885.875 237.438C884.638 237.438 883.4 237.438 882.125 237.438C882.125 236.819 882.125 236.2 882.125 235.562Z" fill="white" fill-opacity="0.2"/>
<path d="M890.562 233.688C891.181 233.688 891.8 233.688 892.438 233.688C892.438 234.925 892.438 236.162 892.438 237.438C891.819 237.438 891.2 237.438 890.562 237.438C890.562 236.2 890.562 234.962 890.562 233.688Z" fill="white" fill-opacity="0.2"/>
<path d="M875.562 233.688C876.181 233.688 876.8 233.688 877.438 233.688C877.438 234.925 877.438 236.162 877.438 237.438C876.819 237.438 876.2 237.438 875.562 237.438C875.562 236.2 875.562 234.962 875.562 233.688Z" fill="white" fill-opacity="0.2"/>
<path d="M888.688 229.938C889.306 229.938 889.925 229.938 890.562 229.938C890.562 231.175 890.562 232.412 890.562 233.688C889.944 233.688 889.325 233.688 888.688 233.688C888.688 232.45 888.688 231.212 888.688 229.938Z" fill="white" fill-opacity="0.2"/>
<path d="M877.438 229.938C878.056 229.938 878.675 229.938 879.312 229.938C879.312 231.175 879.312 232.412 879.312 233.688C878.694 233.688 878.075 233.688 877.438 233.688C877.438 232.45 877.438 231.212 877.438 229.938Z" fill="white" fill-opacity="0.2"/>
<path d="M883.062 215.875C883.681 215.875 884.3 215.875 884.938 215.875C884.938 217.112 884.938 218.35 884.938 219.625C884.319 219.625 883.7 219.625 883.062 219.625C883.062 218.388 883.062 217.15 883.062 215.875Z" fill="white" fill-opacity="0.2"/>
<path d="M890.562 228.062C891.491 228.062 892.419 228.062 893.375 228.062C893.375 228.681 893.375 229.3 893.375 229.938C892.447 229.938 891.519 229.938 890.562 229.938C890.562 229.319 890.562 228.7 890.562 228.062Z" fill="white" fill-opacity="0.2"/>
<path d="M874.625 228.062C875.553 228.062 876.481 228.062 877.438 228.062C877.438 228.681 877.438 229.3 877.438 229.938C876.509 229.938 875.581 229.938 874.625 229.938C874.625 229.319 874.625 228.7 874.625 228.062Z" fill="white" fill-opacity="0.2"/>
<path d="M614.812 194.312C617.597 194.312 620.381 194.312 623.25 194.312C623.25 195.55 623.25 196.787 623.25 198.062C622.631 198.062 622.012 198.062 621.375 198.062C621.375 197.444 621.375 196.825 621.375 196.188C619.209 196.188 617.044 196.188 614.812 196.188C614.812 195.569 614.812 194.95 614.812 194.312Z" fill="white" fill-opacity="0.2"/>
<path d="M600.75 194.312C603.534 194.312 606.319 194.312 609.188 194.312C609.188 194.931 609.188 195.55 609.188 196.188C607.022 196.188 604.856 196.188 602.625 196.188C602.625 196.806 602.625 197.425 602.625 198.062C602.006 198.062 601.387 198.062 600.75 198.062C600.75 196.825 600.75 195.587 600.75 194.312Z" fill="white" fill-opacity="0.2"/>
<path d="M620.438 207.438C621.056 207.438 621.675 207.438 622.312 207.438C622.312 208.675 622.312 209.912 622.312 211.188C620.766 211.188 619.219 211.188 617.625 211.188C617.625 210.569 617.625 209.95 617.625 209.312C618.553 209.312 619.481 209.312 620.438 209.312C620.438 208.694 620.438 208.075 620.438 207.438Z" fill="white" fill-opacity="0.2"/>
<path d="M601.688 207.438C602.306 207.438 602.925 207.438 603.562 207.438C603.562 208.056 603.562 208.675 603.562 209.312C604.491 209.312 605.419 209.312 606.375 209.312C606.375 209.931 606.375 210.55 606.375 211.188C604.828 211.188 603.281 211.188 601.688 211.188C601.688 209.95 601.688 208.712 601.688 207.438Z" fill="white" fill-opacity="0.2"/>
<path d="M612.938 189.625C613.556 189.625 614.175 189.625 614.812 189.625C614.812 191.172 614.812 192.719 614.812 194.312C614.194 194.312 613.575 194.312 612.938 194.312C612.938 192.766 612.938 191.219 612.938 189.625Z" fill="white" fill-opacity="0.2"/>
<path d="M609.188 189.625C609.806 189.625 610.425 189.625 611.062 189.625C611.062 191.172 611.062 192.719 611.062 194.312C610.444 194.312 609.825 194.312 609.188 194.312C609.188 192.766 609.188 191.219 609.188 189.625Z" fill="white" fill-opacity="0.2"/>
<path d="M613.875 207.438C615.112 207.438 616.35 207.438 617.625 207.438C617.625 208.056 617.625 208.675 617.625 209.312C616.388 209.312 615.15 209.312 613.875 209.312C613.875 208.694 613.875 208.075 613.875 207.438Z" fill="white" fill-opacity="0.2"/>
<path d="M606.375 207.438C607.612 207.438 608.85 207.438 610.125 207.438C610.125 208.056 610.125 208.675 610.125 209.312C608.888 209.312 607.65 209.312 606.375 209.312C606.375 208.694 606.375 208.075 606.375 207.438Z" fill="white" fill-opacity="0.2"/>
<path d="M610.125 205.562C611.362 205.562 612.6 205.562 613.875 205.562C613.875 206.181 613.875 206.8 613.875 207.438C612.638 207.438 611.4 207.438 610.125 207.438C610.125 206.819 610.125 206.2 610.125 205.562Z" fill="white" fill-opacity="0.2"/>
<path d="M618.562 203.688C619.181 203.688 619.8 203.688 620.438 203.688C620.438 204.925 620.438 206.162 620.438 207.438C619.819 207.438 619.2 207.438 618.562 207.438C618.562 206.2 618.562 204.962 618.562 203.688Z" fill="white" fill-opacity="0.2"/>
<path d="M603.562 203.688C604.181 203.688 604.8 203.688 605.438 203.688C605.438 204.925 605.438 206.162 605.438 207.438C604.819 207.438 604.2 207.438 603.562 207.438C603.562 206.2 603.562 204.962 603.562 203.688Z" fill="white" fill-opacity="0.2"/>
<path d="M616.688 199.938C617.306 199.938 617.925 199.938 618.562 199.938C618.562 201.175 618.562 202.412 618.562 203.688C617.944 203.688 617.325 203.688 616.688 203.688C616.688 202.45 616.688 201.212 616.688 199.938Z" fill="white" fill-opacity="0.2"/>
<path d="M605.438 199.938C606.056 199.938 606.675 199.938 607.312 199.938C607.312 201.175 607.312 202.412 607.312 203.688C606.694 203.688 606.075 203.688 605.438 203.688C605.438 202.45 605.438 201.212 605.438 199.938Z" fill="white" fill-opacity="0.2"/>
<path d="M611.062 185.875C611.681 185.875 612.3 185.875 612.938 185.875C612.938 187.112 612.938 188.35 612.938 189.625C612.319 189.625 611.7 189.625 611.062 189.625C611.062 188.388 611.062 187.15 611.062 185.875Z" fill="white" fill-opacity="0.2"/>
<path d="M618.562 198.062C619.491 198.062 620.419 198.062 621.375 198.062C621.375 198.681 621.375 199.3 621.375 199.938C620.447 199.938 619.519 199.938 618.562 199.938C618.562 199.319 618.562 198.7 618.562 198.062Z" fill="white" fill-opacity="0.2"/>
<path d="M602.625 198.062C603.553 198.062 604.481 198.062 605.438 198.062C605.438 198.681 605.438 199.3 605.438 199.938C604.509 199.938 603.581 199.938 602.625 199.938C602.625 199.319 602.625 198.7 602.625 198.062Z" fill="white" fill-opacity="0.2"/>
<path d="M340.812 119.312C343.597 119.312 346.381 119.312 349.25 119.312C349.25 120.55 349.25 121.787 349.25 123.062C348.631 123.062 348.012 123.062 347.375 123.062C347.375 122.444 347.375 121.825 347.375 121.188C345.209 121.188 343.044 121.188 340.812 121.188C340.812 120.569 340.812 119.95 340.812 119.312Z" fill="white" fill-opacity="0.2"/>
<path d="M326.75 119.312C329.534 119.312 332.319 119.312 335.188 119.312C335.188 119.931 335.188 120.55 335.188 121.188C333.022 121.188 330.856 121.188 328.625 121.188C328.625 121.806 328.625 122.425 328.625 123.062C328.006 123.062 327.387 123.062 326.75 123.062C326.75 121.825 326.75 120.587 326.75 119.312Z" fill="white" fill-opacity="0.2"/>
<path d="M346.438 132.438C347.056 132.438 347.675 132.438 348.312 132.438C348.312 133.675 348.312 134.912 348.312 136.188C346.766 136.188 345.219 136.188 343.625 136.188C343.625 135.569 343.625 134.95 343.625 134.312C344.553 134.312 345.481 134.312 346.438 134.312C346.438 133.694 346.438 133.075 346.438 132.438Z" fill="white" fill-opacity="0.2"/>
<path d="M327.688 132.438C328.306 132.438 328.925 132.438 329.562 132.438C329.562 133.056 329.562 133.675 329.562 134.312C330.491 134.312 331.419 134.312 332.375 134.312C332.375 134.931 332.375 135.55 332.375 136.188C330.828 136.188 329.281 136.188 327.688 136.188C327.688 134.95 327.688 133.712 327.688 132.438Z" fill="white" fill-opacity="0.2"/>
<path d="M338.938 114.625C339.556 114.625 340.175 114.625 340.812 114.625C340.812 116.172 340.812 117.719 340.812 119.312C340.194 119.312 339.575 119.312 338.938 119.312C338.938 117.766 338.938 116.219 338.938 114.625Z" fill="white" fill-opacity="0.2"/>
<path d="M335.188 114.625C335.806 114.625 336.425 114.625 337.062 114.625C337.062 116.172 337.062 117.719 337.062 119.312C336.444 119.312 335.825 119.312 335.188 119.312C335.188 117.766 335.188 116.219 335.188 114.625Z" fill="white" fill-opacity="0.2"/>
<path d="M339.875 132.438C341.112 132.438 342.35 132.438 343.625 132.438C343.625 133.056 343.625 133.675 343.625 134.312C342.388 134.312 341.15 134.312 339.875 134.312C339.875 133.694 339.875 133.075 339.875 132.438Z" fill="white" fill-opacity="0.2"/>
<path d="M332.375 132.438C333.612 132.438 334.85 132.438 336.125 132.438C336.125 133.056 336.125 133.675 336.125 134.312C334.888 134.312 333.65 134.312 332.375 134.312C332.375 133.694 332.375 133.075 332.375 132.438Z" fill="white" fill-opacity="0.2"/>
<path d="M336.125 130.562C337.362 130.562 338.6 130.562 339.875 130.562C339.875 131.181 339.875 131.8 339.875 132.438C338.638 132.438 337.4 132.438 336.125 132.438C336.125 131.819 336.125 131.2 336.125 130.562Z" fill="white" fill-opacity="0.2"/>
<path d="M344.562 128.688C345.181 128.688 345.8 128.688 346.438 128.688C346.438 129.925 346.438 131.162 346.438 132.438C345.819 132.438 345.2 132.438 344.562 132.438C344.562 131.2 344.562 129.962 344.562 128.688Z" fill="white" fill-opacity="0.2"/>
<path d="M329.562 128.688C330.181 128.688 330.8 128.688 331.438 128.688C331.438 129.925 331.438 131.162 331.438 132.438C330.819 132.438 330.2 132.438 329.562 132.438C329.562 131.2 329.562 129.962 329.562 128.688Z" fill="white" fill-opacity="0.2"/>
<path d="M342.688 124.938C343.306 124.938 343.925 124.938 344.562 124.938C344.562 126.175 344.562 127.412 344.562 128.688C343.944 128.688 343.325 128.688 342.688 128.688C342.688 127.45 342.688 126.212 342.688 124.938Z" fill="white" fill-opacity="0.2"/>
<path d="M331.438 124.938C332.056 124.938 332.675 124.938 333.312 124.938C333.312 126.175 333.312 127.412 333.312 128.688C332.694 128.688 332.075 128.688 331.438 128.688C331.438 127.45 331.438 126.212 331.438 124.938Z" fill="white" fill-opacity="0.2"/>
<path d="M337.062 110.875C337.681 110.875 338.3 110.875 338.938 110.875C338.938 112.112 338.938 113.35 338.938 114.625C338.319 114.625 337.7 114.625 337.062 114.625C337.062 113.388 337.062 112.15 337.062 110.875Z" fill="white" fill-opacity="0.2"/>
<path d="M344.562 123.062C345.491 123.062 346.419 123.062 347.375 123.062C347.375 123.681 347.375 124.3 347.375 124.938C346.447 124.938 345.519 124.938 344.562 124.938C344.562 124.319 344.562 123.7 344.562 123.062Z" fill="white" fill-opacity="0.2"/>
<path d="M328.625 123.062C329.553 123.062 330.481 123.062 331.438 123.062C331.438 123.681 331.438 124.3 331.438 124.938C330.509 124.938 329.581 124.938 328.625 124.938C328.625 124.319 328.625 123.7 328.625 123.062Z" fill="white" fill-opacity="0.2"/>
<path d="M14.8125 144.312C17.5969 144.312 20.3812 144.312 23.25 144.312C23.25 145.55 23.25 146.787 23.25 148.062C22.6312 148.062 22.0125 148.062 21.375 148.062C21.375 147.444 21.375 146.825 21.375 146.188C19.2094 146.188 17.0438 146.188 14.8125 146.188C14.8125 145.569 14.8125 144.95 14.8125 144.312Z" fill="white" fill-opacity="0.2"/>
<path d="M0.75 144.312C3.53437 144.312 6.31875 144.312 9.1875 144.312C9.1875 144.931 9.1875 145.55 9.1875 146.188C7.02187 146.188 4.85625 146.188 2.625 146.188C2.625 146.806 2.625 147.425 2.625 148.062C2.00625 148.062 1.3875 148.062 0.75 148.062C0.75 146.825 0.75 145.587 0.75 144.312Z" fill="white" fill-opacity="0.2"/>
<path d="M20.4375 157.438C21.0563 157.438 21.675 157.438 22.3125 157.438C22.3125 158.675 22.3125 159.912 22.3125 161.188C20.7656 161.188 19.2188 161.188 17.625 161.188C17.625 160.569 17.625 159.95 17.625 159.312C18.5531 159.312 19.4813 159.312 20.4375 159.312C20.4375 158.694 20.4375 158.075 20.4375 157.438Z" fill="white" fill-opacity="0.2"/>
<path d="M1.6875 157.438C2.30625 157.438 2.925 157.438 3.5625 157.438C3.5625 158.056 3.5625 158.675 3.5625 159.312C4.49062 159.312 5.41875 159.312 6.375 159.312C6.375 159.931 6.375 160.55 6.375 161.188C4.82812 161.188 3.28125 161.188 1.6875 161.188C1.6875 159.95 1.6875 158.712 1.6875 157.438Z" fill="white" fill-opacity="0.2"/>
<path d="M12.9375 139.625C13.5562 139.625 14.175 139.625 14.8125 139.625C14.8125 141.172 14.8125 142.719 14.8125 144.312C14.1938 144.312 13.575 144.312 12.9375 144.312C12.9375 142.766 12.9375 141.219 12.9375 139.625Z" fill="white" fill-opacity="0.2"/>
<path d="M9.1875 139.625C9.80625 139.625 10.425 139.625 11.0625 139.625C11.0625 141.172 11.0625 142.719 11.0625 144.312C10.4438 144.312 9.825 144.312 9.1875 144.312C9.1875 142.766 9.1875 141.219 9.1875 139.625Z" fill="white" fill-opacity="0.2"/>
<path d="M13.875 157.438C15.1125 157.438 16.35 157.438 17.625 157.438C17.625 158.056 17.625 158.675 17.625 159.312C16.3875 159.312 15.15 159.312 13.875 159.312C13.875 158.694 13.875 158.075 13.875 157.438Z" fill="white" fill-opacity="0.2"/>
<path d="M6.375 157.438C7.6125 157.438 8.85 157.438 10.125 157.438C10.125 158.056 10.125 158.675 10.125 159.312C8.8875 159.312 7.65 159.312 6.375 159.312C6.375 158.694 6.375 158.075 6.375 157.438Z" fill="white" fill-opacity="0.2"/>
<path d="M10.125 155.562C11.3625 155.562 12.6 155.562 13.875 155.562C13.875 156.181 13.875 156.8 13.875 157.438C12.6375 157.438 11.4 157.438 10.125 157.438C10.125 156.819 10.125 156.2 10.125 155.562Z" fill="white" fill-opacity="0.2"/>
<path d="M18.5625 153.688C19.1812 153.688 19.8 153.688 20.4375 153.688C20.4375 154.925 20.4375 156.162 20.4375 157.438C19.8188 157.438 19.2 157.438 18.5625 157.438C18.5625 156.2 18.5625 154.962 18.5625 153.688Z" fill="white" fill-opacity="0.2"/>
<path d="M3.5625 153.688C4.18125 153.688 4.8 153.688 5.4375 153.688C5.4375 154.925 5.4375 156.162 5.4375 157.438C4.81875 157.438 4.2 157.438 3.5625 157.438C3.5625 156.2 3.5625 154.962 3.5625 153.688Z" fill="white" fill-opacity="0.2"/>
<path d="M16.6875 149.938C17.3062 149.938 17.925 149.938 18.5625 149.938C18.5625 151.175 18.5625 152.412 18.5625 153.688C17.9438 153.688 17.325 153.688 16.6875 153.688C16.6875 152.45 16.6875 151.212 16.6875 149.938Z" fill="white" fill-opacity="0.2"/>
<path d="M5.4375 149.938C6.05625 149.938 6.675 149.938 7.3125 149.938C7.3125 151.175 7.3125 152.412 7.3125 153.688C6.69375 153.688 6.075 153.688 5.4375 153.688C5.4375 152.45 5.4375 151.212 5.4375 149.938Z" fill="white" fill-opacity="0.2"/>
<path d="M11.0625 135.875C11.6812 135.875 12.3 135.875 12.9375 135.875C12.9375 137.112 12.9375 138.35 12.9375 139.625C12.3188 139.625 11.7 139.625 11.0625 139.625C11.0625 138.388 11.0625 137.15 11.0625 135.875Z" fill="white" fill-opacity="0.2"/>
<path d="M18.5625 148.062C19.4906 148.062 20.4188 148.062 21.375 148.062C21.375 148.681 21.375 149.3 21.375 149.938C20.4469 149.938 19.5187 149.938 18.5625 149.938C18.5625 149.319 18.5625 148.7 18.5625 148.062Z" fill="white" fill-opacity="0.2"/>
<path d="M2.625 148.062C3.55313 148.062 4.48125 148.062 5.4375 148.062C5.4375 148.681 5.4375 149.3 5.4375 149.938C4.50937 149.938 3.58125 149.938 2.625 149.938C2.625 149.319 2.625 148.7 2.625 148.062Z" fill="white" fill-opacity="0.2"/>
<path d="M20.8125 9.3125C23.5969 9.3125 26.3812 9.3125 29.25 9.3125C29.25 10.55 29.25 11.7875 29.25 13.0625C28.6312 13.0625 28.0125 13.0625 27.375 13.0625C27.375 12.4437 27.375 11.825 27.375 11.1875C25.2094 11.1875 23.0438 11.1875 20.8125 11.1875C20.8125 10.5688 20.8125 9.95 20.8125 9.3125Z" fill="white" fill-opacity="0.2"/>
<path d="M6.75 9.3125C9.53437 9.3125 12.3187 9.3125 15.1875 9.3125C15.1875 9.93125 15.1875 10.55 15.1875 11.1875C13.0219 11.1875 10.8562 11.1875 8.625 11.1875C8.625 11.8063 8.625 12.425 8.625 13.0625C8.00625 13.0625 7.3875 13.0625 6.75 13.0625C6.75 11.825 6.75 10.5875 6.75 9.3125Z" fill="white" fill-opacity="0.2"/>
<path d="M26.4375 22.4375C27.0563 22.4375 27.675 22.4375 28.3125 22.4375C28.3125 23.675 28.3125 24.9125 28.3125 26.1875C26.7656 26.1875 25.2188 26.1875 23.625 26.1875C23.625 25.5687 23.625 24.95 23.625 24.3125C24.5531 24.3125 25.4813 24.3125 26.4375 24.3125C26.4375 23.6938 26.4375 23.075 26.4375 22.4375Z" fill="white" fill-opacity="0.2"/>
<path d="M7.6875 22.4375C8.30625 22.4375 8.925 22.4375 9.5625 22.4375C9.5625 23.0562 9.5625 23.675 9.5625 24.3125C10.4906 24.3125 11.4188 24.3125 12.375 24.3125C12.375 24.9313 12.375 25.55 12.375 26.1875C10.8281 26.1875 9.28125 26.1875 7.6875 26.1875C7.6875 24.95 7.6875 23.7125 7.6875 22.4375Z" fill="white" fill-opacity="0.2"/>
<path d="M18.9375 4.625C19.5562 4.625 20.175 4.625 20.8125 4.625C20.8125 6.17188 20.8125 7.71875 20.8125 9.3125C20.1938 9.3125 19.575 9.3125 18.9375 9.3125C18.9375 7.76562 18.9375 6.21875 18.9375 4.625Z" fill="white" fill-opacity="0.2"/>
<path d="M15.1875 4.625C15.8062 4.625 16.425 4.625 17.0625 4.625C17.0625 6.17188 17.0625 7.71875 17.0625 9.3125C16.4438 9.3125 15.825 9.3125 15.1875 9.3125C15.1875 7.76562 15.1875 6.21875 15.1875 4.625Z" fill="white" fill-opacity="0.2"/>
<path d="M19.875 22.4375C21.1125 22.4375 22.35 22.4375 23.625 22.4375C23.625 23.0562 23.625 23.675 23.625 24.3125C22.3875 24.3125 21.15 24.3125 19.875 24.3125C19.875 23.6938 19.875 23.075 19.875 22.4375Z" fill="white" fill-opacity="0.2"/>
<path d="M12.375 22.4375C13.6125 22.4375 14.85 22.4375 16.125 22.4375C16.125 23.0562 16.125 23.675 16.125 24.3125C14.8875 24.3125 13.65 24.3125 12.375 24.3125C12.375 23.6938 12.375 23.075 12.375 22.4375Z" fill="white" fill-opacity="0.2"/>
<path d="M16.125 20.5625C17.3625 20.5625 18.6 20.5625 19.875 20.5625C19.875 21.1812 19.875 21.8 19.875 22.4375C18.6375 22.4375 17.4 22.4375 16.125 22.4375C16.125 21.8188 16.125 21.2 16.125 20.5625Z" fill="white" fill-opacity="0.2"/>
<path d="M24.5625 18.6875C25.1812 18.6875 25.8 18.6875 26.4375 18.6875C26.4375 19.925 26.4375 21.1625 26.4375 22.4375C25.8188 22.4375 25.2 22.4375 24.5625 22.4375C24.5625 21.2 24.5625 19.9625 24.5625 18.6875Z" fill="white" fill-opacity="0.2"/>
<path d="M9.5625 18.6875C10.1812 18.6875 10.8 18.6875 11.4375 18.6875C11.4375 19.925 11.4375 21.1625 11.4375 22.4375C10.8188 22.4375 10.2 22.4375 9.5625 22.4375C9.5625 21.2 9.5625 19.9625 9.5625 18.6875Z" fill="white" fill-opacity="0.2"/>
<path d="M22.6875 14.9375C23.3062 14.9375 23.925 14.9375 24.5625 14.9375C24.5625 16.175 24.5625 17.4125 24.5625 18.6875C23.9438 18.6875 23.325 18.6875 22.6875 18.6875C22.6875 17.45 22.6875 16.2125 22.6875 14.9375Z" fill="white" fill-opacity="0.2"/>
<path d="M11.4375 14.9375C12.0562 14.9375 12.675 14.9375 13.3125 14.9375C13.3125 16.175 13.3125 17.4125 13.3125 18.6875C12.6938 18.6875 12.075 18.6875 11.4375 18.6875C11.4375 17.45 11.4375 16.2125 11.4375 14.9375Z" fill="white" fill-opacity="0.2"/>
<path d="M17.0625 0.875C17.6812 0.875 18.3 0.875 18.9375 0.875C18.9375 2.1125 18.9375 3.35 18.9375 4.625C18.3188 4.625 17.7 4.625 17.0625 4.625C17.0625 3.3875 17.0625 2.15 17.0625 0.875Z" fill="white" fill-opacity="0.2"/>
<path d="M24.5625 13.0625C25.4906 13.0625 26.4188 13.0625 27.375 13.0625C27.375 13.6812 27.375 14.3 27.375 14.9375C26.4469 14.9375 25.5187 14.9375 24.5625 14.9375C24.5625 14.3188 24.5625 13.7 24.5625 13.0625Z" fill="white" fill-opacity="0.2"/>
<path d="M8.625 13.0625C9.55313 13.0625 10.4813 13.0625 11.4375 13.0625C11.4375 13.6812 11.4375 14.3 11.4375 14.9375C10.5094 14.9375 9.58125 14.9375 8.625 14.9375C8.625 14.3188 8.625 13.7 8.625 13.0625Z" fill="white" fill-opacity="0.2"/>
<path d="M278.812 27.3125C281.597 27.3125 284.381 27.3125 287.25 27.3125C287.25 28.55 287.25 29.7875 287.25 31.0625C286.631 31.0625 286.012 31.0625 285.375 31.0625C285.375 30.4437 285.375 29.825 285.375 29.1875C283.209 29.1875 281.044 29.1875 278.812 29.1875C278.812 28.5688 278.812 27.95 278.812 27.3125Z" fill="white" fill-opacity="0.2"/>
<path d="M264.75 27.3125C267.534 27.3125 270.319 27.3125 273.188 27.3125C273.188 27.9312 273.188 28.55 273.188 29.1875C271.022 29.1875 268.856 29.1875 266.625 29.1875C266.625 29.8063 266.625 30.425 266.625 31.0625C266.006 31.0625 265.387 31.0625 264.75 31.0625C264.75 29.825 264.75 28.5875 264.75 27.3125Z" fill="white" fill-opacity="0.2"/>
<path d="M284.438 40.4375C285.056 40.4375 285.675 40.4375 286.312 40.4375C286.312 41.675 286.312 42.9125 286.312 44.1875C284.766 44.1875 283.219 44.1875 281.625 44.1875C281.625 43.5687 281.625 42.95 281.625 42.3125C282.553 42.3125 283.481 42.3125 284.438 42.3125C284.438 41.6938 284.438 41.075 284.438 40.4375Z" fill="white" fill-opacity="0.2"/>
<path d="M265.688 40.4375C266.306 40.4375 266.925 40.4375 267.562 40.4375C267.562 41.0562 267.562 41.675 267.562 42.3125C268.491 42.3125 269.419 42.3125 270.375 42.3125C270.375 42.9313 270.375 43.55 270.375 44.1875C268.828 44.1875 267.281 44.1875 265.688 44.1875C265.688 42.95 265.688 41.7125 265.688 40.4375Z" fill="white" fill-opacity="0.2"/>
<path d="M276.938 22.625C277.556 22.625 278.175 22.625 278.812 22.625C278.812 24.1719 278.812 25.7188 278.812 27.3125C278.194 27.3125 277.575 27.3125 276.938 27.3125C276.938 25.7656 276.938 24.2188 276.938 22.625Z" fill="white" fill-opacity="0.2"/>
<path d="M273.188 22.625C273.806 22.625 274.425 22.625 275.062 22.625C275.062 24.1719 275.062 25.7188 275.062 27.3125C274.444 27.3125 273.825 27.3125 273.188 27.3125C273.188 25.7656 273.188 24.2188 273.188 22.625Z" fill="white" fill-opacity="0.2"/>
<path d="M277.875 40.4375C279.112 40.4375 280.35 40.4375 281.625 40.4375C281.625 41.0562 281.625 41.675 281.625 42.3125C280.388 42.3125 279.15 42.3125 277.875 42.3125C277.875 41.6938 277.875 41.075 277.875 40.4375Z" fill="white" fill-opacity="0.2"/>
<path d="M270.375 40.4375C271.612 40.4375 272.85 40.4375 274.125 40.4375C274.125 41.0562 274.125 41.675 274.125 42.3125C272.888 42.3125 271.65 42.3125 270.375 42.3125C270.375 41.6938 270.375 41.075 270.375 40.4375Z" fill="white" fill-opacity="0.2"/>
<path d="M274.125 38.5625C275.362 38.5625 276.6 38.5625 277.875 38.5625C277.875 39.1812 277.875 39.8 277.875 40.4375C276.638 40.4375 275.4 40.4375 274.125 40.4375C274.125 39.8188 274.125 39.2 274.125 38.5625Z" fill="white" fill-opacity="0.2"/>
<path d="M282.562 36.6875C283.181 36.6875 283.8 36.6875 284.438 36.6875C284.438 37.925 284.438 39.1625 284.438 40.4375C283.819 40.4375 283.2 40.4375 282.562 40.4375C282.562 39.2 282.562 37.9625 282.562 36.6875Z" fill="white" fill-opacity="0.2"/>
<path d="M267.562 36.6875C268.181 36.6875 268.8 36.6875 269.438 36.6875C269.438 37.925 269.438 39.1625 269.438 40.4375C268.819 40.4375 268.2 40.4375 267.562 40.4375C267.562 39.2 267.562 37.9625 267.562 36.6875Z" fill="white" fill-opacity="0.2"/>
<path d="M280.688 32.9375C281.306 32.9375 281.925 32.9375 282.562 32.9375C282.562 34.175 282.562 35.4125 282.562 36.6875C281.944 36.6875 281.325 36.6875 280.688 36.6875C280.688 35.45 280.688 34.2125 280.688 32.9375Z" fill="white" fill-opacity="0.2"/>
<path d="M269.438 32.9375C270.056 32.9375 270.675 32.9375 271.312 32.9375C271.312 34.175 271.312 35.4125 271.312 36.6875C270.694 36.6875 270.075 36.6875 269.438 36.6875C269.438 35.45 269.438 34.2125 269.438 32.9375Z" fill="white" fill-opacity="0.2"/>
<path d="M275.062 18.875C275.681 18.875 276.3 18.875 276.938 18.875C276.938 20.1125 276.938 21.35 276.938 22.625C276.319 22.625 275.7 22.625 275.062 22.625C275.062 21.3875 275.062 20.15 275.062 18.875Z" fill="white" fill-opacity="0.2"/>
<path d="M282.562 31.0625C283.491 31.0625 284.419 31.0625 285.375 31.0625C285.375 31.6812 285.375 32.3 285.375 32.9375C284.447 32.9375 283.519 32.9375 282.562 32.9375C282.562 32.3188 282.562 31.7 282.562 31.0625Z" fill="white" fill-opacity="0.2"/>
<path d="M266.625 31.0625C267.553 31.0625 268.481 31.0625 269.438 31.0625C269.438 31.6812 269.438 32.3 269.438 32.9375C268.509 32.9375 267.581 32.9375 266.625 32.9375C266.625 32.3188 266.625 31.7 266.625 31.0625Z" fill="white" fill-opacity="0.2"/>
<path d="M1328.81 19.3125C1331.6 19.3125 1334.38 19.3125 1337.25 19.3125C1337.25 20.55 1337.25 21.7875 1337.25 23.0625C1336.63 23.0625 1336.01 23.0625 1335.38 23.0625C1335.38 22.4437 1335.38 21.825 1335.38 21.1875C1333.21 21.1875 1331.04 21.1875 1328.81 21.1875C1328.81 20.5688 1328.81 19.95 1328.81 19.3125Z" fill="white" fill-opacity="0.2"/>
<path d="M1314.75 19.3125C1317.53 19.3125 1320.32 19.3125 1323.19 19.3125C1323.19 19.9312 1323.19 20.55 1323.19 21.1875C1321.02 21.1875 1318.86 21.1875 1316.62 21.1875C1316.62 21.8063 1316.62 22.425 1316.62 23.0625C1316.01 23.0625 1315.39 23.0625 1314.75 23.0625C1314.75 21.825 1314.75 20.5875 1314.75 19.3125Z" fill="white" fill-opacity="0.2"/>
<path d="M1334.44 32.4375C1335.06 32.4375 1335.68 32.4375 1336.31 32.4375C1336.31 33.675 1336.31 34.9125 1336.31 36.1875C1334.77 36.1875 1333.22 36.1875 1331.62 36.1875C1331.62 35.5687 1331.62 34.95 1331.62 34.3125C1332.55 34.3125 1333.48 34.3125 1334.44 34.3125C1334.44 33.6938 1334.44 33.075 1334.44 32.4375Z" fill="white" fill-opacity="0.2"/>
<path d="M1315.69 32.4375C1316.31 32.4375 1316.92 32.4375 1317.56 32.4375C1317.56 33.0562 1317.56 33.675 1317.56 34.3125C1318.49 34.3125 1319.42 34.3125 1320.38 34.3125C1320.38 34.9313 1320.38 35.55 1320.38 36.1875C1318.83 36.1875 1317.28 36.1875 1315.69 36.1875C1315.69 34.95 1315.69 33.7125 1315.69 32.4375Z" fill="white" fill-opacity="0.2"/>
<path d="M1326.94 14.625C1327.56 14.625 1328.17 14.625 1328.81 14.625C1328.81 16.1719 1328.81 17.7188 1328.81 19.3125C1328.19 19.3125 1327.57 19.3125 1326.94 19.3125C1326.94 17.7656 1326.94 16.2188 1326.94 14.625Z" fill="white" fill-opacity="0.2"/>
<path d="M1323.19 14.625C1323.81 14.625 1324.42 14.625 1325.06 14.625C1325.06 16.1719 1325.06 17.7188 1325.06 19.3125C1324.44 19.3125 1323.82 19.3125 1323.19 19.3125C1323.19 17.7656 1323.19 16.2188 1323.19 14.625Z" fill="white" fill-opacity="0.2"/>
<path d="M1327.88 32.4375C1329.11 32.4375 1330.35 32.4375 1331.62 32.4375C1331.62 33.0562 1331.62 33.675 1331.62 34.3125C1330.39 34.3125 1329.15 34.3125 1327.88 34.3125C1327.88 33.6938 1327.88 33.075 1327.88 32.4375Z" fill="white" fill-opacity="0.2"/>
<path d="M1320.38 32.4375C1321.61 32.4375 1322.85 32.4375 1324.12 32.4375C1324.12 33.0562 1324.12 33.675 1324.12 34.3125C1322.89 34.3125 1321.65 34.3125 1320.38 34.3125C1320.38 33.6938 1320.38 33.075 1320.38 32.4375Z" fill="white" fill-opacity="0.2"/>
<path d="M1324.12 30.5625C1325.36 30.5625 1326.6 30.5625 1327.88 30.5625C1327.88 31.1812 1327.88 31.8 1327.88 32.4375C1326.64 32.4375 1325.4 32.4375 1324.12 32.4375C1324.12 31.8188 1324.12 31.2 1324.12 30.5625Z" fill="white" fill-opacity="0.2"/>
<path d="M1332.56 28.6875C1333.18 28.6875 1333.8 28.6875 1334.44 28.6875C1334.44 29.925 1334.44 31.1625 1334.44 32.4375C1333.82 32.4375 1333.2 32.4375 1332.56 32.4375C1332.56 31.2 1332.56 29.9625 1332.56 28.6875Z" fill="white" fill-opacity="0.2"/>
<path d="M1317.56 28.6875C1318.18 28.6875 1318.8 28.6875 1319.44 28.6875C1319.44 29.925 1319.44 31.1625 1319.44 32.4375C1318.82 32.4375 1318.2 32.4375 1317.56 32.4375C1317.56 31.2 1317.56 29.9625 1317.56 28.6875Z" fill="white" fill-opacity="0.2"/>
<path d="M1330.69 24.9375C1331.31 24.9375 1331.92 24.9375 1332.56 24.9375C1332.56 26.175 1332.56 27.4125 1332.56 28.6875C1331.94 28.6875 1331.32 28.6875 1330.69 28.6875C1330.69 27.45 1330.69 26.2125 1330.69 24.9375Z" fill="white" fill-opacity="0.2"/>
<path d="M1319.44 24.9375C1320.06 24.9375 1320.67 24.9375 1321.31 24.9375C1321.31 26.175 1321.31 27.4125 1321.31 28.6875C1320.69 28.6875 1320.07 28.6875 1319.44 28.6875C1319.44 27.45 1319.44 26.2125 1319.44 24.9375Z" fill="white" fill-opacity="0.2"/>
<path d="M1325.06 10.875C1325.68 10.875 1326.3 10.875 1326.94 10.875C1326.94 12.1125 1326.94 13.35 1326.94 14.625C1326.32 14.625 1325.7 14.625 1325.06 14.625C1325.06 13.3875 1325.06 12.15 1325.06 10.875Z" fill="white" fill-opacity="0.2"/>
<path d="M1332.56 23.0625C1333.49 23.0625 1334.42 23.0625 1335.38 23.0625C1335.38 23.6812 1335.38 24.3 1335.38 24.9375C1334.45 24.9375 1333.52 24.9375 1332.56 24.9375C1332.56 24.3188 1332.56 23.7 1332.56 23.0625Z" fill="white" fill-opacity="0.2"/>
<path d="M1316.62 23.0625C1317.55 23.0625 1318.48 23.0625 1319.44 23.0625C1319.44 23.6812 1319.44 24.3 1319.44 24.9375C1318.51 24.9375 1317.58 24.9375 1316.62 24.9375C1316.62 24.3188 1316.62 23.7 1316.62 23.0625Z" fill="white" fill-opacity="0.2"/>
<path d="M1230.81 125.312C1233.6 125.312 1236.38 125.312 1239.25 125.312C1239.25 126.55 1239.25 127.787 1239.25 129.062C1238.63 129.062 1238.01 129.062 1237.38 129.062C1237.38 128.444 1237.38 127.825 1237.38 127.188C1235.21 127.188 1233.04 127.188 1230.81 127.188C1230.81 126.569 1230.81 125.95 1230.81 125.312Z" fill="white" fill-opacity="0.2"/>
<path d="M1216.75 125.312C1219.53 125.312 1222.32 125.312 1225.19 125.312C1225.19 125.931 1225.19 126.55 1225.19 127.188C1223.02 127.188 1220.86 127.188 1218.62 127.188C1218.62 127.806 1218.62 128.425 1218.62 129.062C1218.01 129.062 1217.39 129.062 1216.75 129.062C1216.75 127.825 1216.75 126.587 1216.75 125.312Z" fill="white" fill-opacity="0.2"/>
<path d="M1236.44 138.438C1237.06 138.438 1237.68 138.438 1238.31 138.438C1238.31 139.675 1238.31 140.912 1238.31 142.188C1236.77 142.188 1235.22 142.188 1233.62 142.188C1233.62 141.569 1233.62 140.95 1233.62 140.312C1234.55 140.312 1235.48 140.312 1236.44 140.312C1236.44 139.694 1236.44 139.075 1236.44 138.438Z" fill="white" fill-opacity="0.2"/>
<path d="M1217.69 138.438C1218.31 138.438 1218.92 138.438 1219.56 138.438C1219.56 139.056 1219.56 139.675 1219.56 140.312C1220.49 140.312 1221.42 140.312 1222.38 140.312C1222.38 140.931 1222.38 141.55 1222.38 142.188C1220.83 142.188 1219.28 142.188 1217.69 142.188C1217.69 140.95 1217.69 139.712 1217.69 138.438Z" fill="white" fill-opacity="0.2"/>
<path d="M1228.94 120.625C1229.56 120.625 1230.17 120.625 1230.81 120.625C1230.81 122.172 1230.81 123.719 1230.81 125.312C1230.19 125.312 1229.57 125.312 1228.94 125.312C1228.94 123.766 1228.94 122.219 1228.94 120.625Z" fill="white" fill-opacity="0.2"/>
<path d="M1225.19 120.625C1225.81 120.625 1226.42 120.625 1227.06 120.625C1227.06 122.172 1227.06 123.719 1227.06 125.312C1226.44 125.312 1225.82 125.312 1225.19 125.312C1225.19 123.766 1225.19 122.219 1225.19 120.625Z" fill="white" fill-opacity="0.2"/>
<path d="M1229.88 138.438C1231.11 138.438 1232.35 138.438 1233.62 138.438C1233.62 139.056 1233.62 139.675 1233.62 140.312C1232.39 140.312 1231.15 140.312 1229.88 140.312C1229.88 139.694 1229.88 139.075 1229.88 138.438Z" fill="white" fill-opacity="0.2"/>
<path d="M1222.38 138.438C1223.61 138.438 1224.85 138.438 1226.12 138.438C1226.12 139.056 1226.12 139.675 1226.12 140.312C1224.89 140.312 1223.65 140.312 1222.38 140.312C1222.38 139.694 1222.38 139.075 1222.38 138.438Z" fill="white" fill-opacity="0.2"/>
<path d="M1226.12 136.562C1227.36 136.562 1228.6 136.562 1229.88 136.562C1229.88 137.181 1229.88 137.8 1229.88 138.438C1228.64 138.438 1227.4 138.438 1226.12 138.438C1226.12 137.819 1226.12 137.2 1226.12 136.562Z" fill="white" fill-opacity="0.2"/>
<path d="M1234.56 134.688C1235.18 134.688 1235.8 134.688 1236.44 134.688C1236.44 135.925 1236.44 137.162 1236.44 138.438C1235.82 138.438 1235.2 138.438 1234.56 138.438C1234.56 137.2 1234.56 135.962 1234.56 134.688Z" fill="white" fill-opacity="0.2"/>
<path d="M1219.56 134.688C1220.18 134.688 1220.8 134.688 1221.44 134.688C1221.44 135.925 1221.44 137.162 1221.44 138.438C1220.82 138.438 1220.2 138.438 1219.56 138.438C1219.56 137.2 1219.56 135.962 1219.56 134.688Z" fill="white" fill-opacity="0.2"/>
<path d="M1232.69 130.938C1233.31 130.938 1233.92 130.938 1234.56 130.938C1234.56 132.175 1234.56 133.412 1234.56 134.688C1233.94 134.688 1233.32 134.688 1232.69 134.688C1232.69 133.45 1232.69 132.212 1232.69 130.938Z" fill="white" fill-opacity="0.2"/>
<path d="M1221.44 130.938C1222.06 130.938 1222.67 130.938 1223.31 130.938C1223.31 132.175 1223.31 133.412 1223.31 134.688C1222.69 134.688 1222.07 134.688 1221.44 134.688C1221.44 133.45 1221.44 132.212 1221.44 130.938Z" fill="white" fill-opacity="0.2"/>
<path d="M1227.06 116.875C1227.68 116.875 1228.3 116.875 1228.94 116.875C1228.94 118.112 1228.94 119.35 1228.94 120.625C1228.32 120.625 1227.7 120.625 1227.06 120.625C1227.06 119.388 1227.06 118.15 1227.06 116.875Z" fill="white" fill-opacity="0.2"/>
<path d="M1234.56 129.062C1235.49 129.062 1236.42 129.062 1237.38 129.062C1237.38 129.681 1237.38 130.3 1237.38 130.938C1236.45 130.938 1235.52 130.938 1234.56 130.938C1234.56 130.319 1234.56 129.7 1234.56 129.062Z" fill="white" fill-opacity="0.2"/>
<path d="M1218.62 129.062C1219.55 129.062 1220.48 129.062 1221.44 129.062C1221.44 129.681 1221.44 130.3 1221.44 130.938C1220.51 130.938 1219.58 130.938 1218.62 130.938C1218.62 130.319 1218.62 129.7 1218.62 129.062Z" fill="white" fill-opacity="0.2"/>
<path d="M1388.81 320.312C1391.6 320.312 1394.38 320.312 1397.25 320.312C1397.25 321.55 1397.25 322.787 1397.25 324.062C1396.63 324.062 1396.01 324.062 1395.38 324.062C1395.38 323.444 1395.38 322.825 1395.38 322.188C1393.21 322.188 1391.04 322.188 1388.81 322.188C1388.81 321.569 1388.81 320.95 1388.81 320.312Z" fill="white" fill-opacity="0.2"/>
<path d="M1374.75 320.312C1377.53 320.312 1380.32 320.312 1383.19 320.312C1383.19 320.931 1383.19 321.55 1383.19 322.188C1381.02 322.188 1378.86 322.188 1376.62 322.188C1376.62 322.806 1376.62 323.425 1376.62 324.062C1376.01 324.062 1375.39 324.062 1374.75 324.062C1374.75 322.825 1374.75 321.587 1374.75 320.312Z" fill="white" fill-opacity="0.2"/>
<path d="M1394.44 333.438C1395.06 333.438 1395.68 333.438 1396.31 333.438C1396.31 334.675 1396.31 335.912 1396.31 337.188C1394.77 337.188 1393.22 337.188 1391.62 337.188C1391.62 336.569 1391.62 335.95 1391.62 335.312C1392.55 335.312 1393.48 335.312 1394.44 335.312C1394.44 334.694 1394.44 334.075 1394.44 333.438Z" fill="white" fill-opacity="0.2"/>
<path d="M1375.69 333.438C1376.31 333.438 1376.92 333.438 1377.56 333.438C1377.56 334.056 1377.56 334.675 1377.56 335.312C1378.49 335.312 1379.42 335.312 1380.38 335.312C1380.38 335.931 1380.38 336.55 1380.38 337.188C1378.83 337.188 1377.28 337.188 1375.69 337.188C1375.69 335.95 1375.69 334.712 1375.69 333.438Z" fill="white" fill-opacity="0.2"/>
<path d="M1386.94 315.625C1387.56 315.625 1388.17 315.625 1388.81 315.625C1388.81 317.172 1388.81 318.719 1388.81 320.312C1388.19 320.312 1387.57 320.312 1386.94 320.312C1386.94 318.766 1386.94 317.219 1386.94 315.625Z" fill="white" fill-opacity="0.2"/>
<path d="M1383.19 315.625C1383.81 315.625 1384.42 315.625 1385.06 315.625C1385.06 317.172 1385.06 318.719 1385.06 320.312C1384.44 320.312 1383.82 320.312 1383.19 320.312C1383.19 318.766 1383.19 317.219 1383.19 315.625Z" fill="white" fill-opacity="0.2"/>
<path d="M1387.88 333.438C1389.11 333.438 1390.35 333.438 1391.62 333.438C1391.62 334.056 1391.62 334.675 1391.62 335.312C1390.39 335.312 1389.15 335.312 1387.88 335.312C1387.88 334.694 1387.88 334.075 1387.88 333.438Z" fill="white" fill-opacity="0.2"/>
<path d="M1380.38 333.438C1381.61 333.438 1382.85 333.438 1384.12 333.438C1384.12 334.056 1384.12 334.675 1384.12 335.312C1382.89 335.312 1381.65 335.312 1380.38 335.312C1380.38 334.694 1380.38 334.075 1380.38 333.438Z" fill="white" fill-opacity="0.2"/>
<path d="M1384.12 331.562C1385.36 331.562 1386.6 331.562 1387.88 331.562C1387.88 332.181 1387.88 332.8 1387.88 333.438C1386.64 333.438 1385.4 333.438 1384.12 333.438C1384.12 332.819 1384.12 332.2 1384.12 331.562Z" fill="white" fill-opacity="0.2"/>
<path d="M1392.56 329.688C1393.18 329.688 1393.8 329.688 1394.44 329.688C1394.44 330.925 1394.44 332.162 1394.44 333.438C1393.82 333.438 1393.2 333.438 1392.56 333.438C1392.56 332.2 1392.56 330.962 1392.56 329.688Z" fill="white" fill-opacity="0.2"/>
<path d="M1377.56 329.688C1378.18 329.688 1378.8 329.688 1379.44 329.688C1379.44 330.925 1379.44 332.162 1379.44 333.438C1378.82 333.438 1378.2 333.438 1377.56 333.438C1377.56 332.2 1377.56 330.962 1377.56 329.688Z" fill="white" fill-opacity="0.2"/>
<path d="M1390.69 325.938C1391.31 325.938 1391.92 325.938 1392.56 325.938C1392.56 327.175 1392.56 328.412 1392.56 329.688C1391.94 329.688 1391.32 329.688 1390.69 329.688C1390.69 328.45 1390.69 327.212 1390.69 325.938Z" fill="white" fill-opacity="0.2"/>
<path d="M1379.44 325.938C1380.06 325.938 1380.67 325.938 1381.31 325.938C1381.31 327.175 1381.31 328.412 1381.31 329.688C1380.69 329.688 1380.07 329.688 1379.44 329.688C1379.44 328.45 1379.44 327.212 1379.44 325.938Z" fill="white" fill-opacity="0.2"/>
<path d="M1385.06 311.875C1385.68 311.875 1386.3 311.875 1386.94 311.875C1386.94 313.112 1386.94 314.35 1386.94 315.625C1386.32 315.625 1385.7 315.625 1385.06 315.625C1385.06 314.388 1385.06 313.15 1385.06 311.875Z" fill="white" fill-opacity="0.2"/>
<path d="M1392.56 324.062C1393.49 324.062 1394.42 324.062 1395.38 324.062C1395.38 324.681 1395.38 325.3 1395.38 325.938C1394.45 325.938 1393.52 325.938 1392.56 325.938C1392.56 325.319 1392.56 324.7 1392.56 324.062Z" fill="white" fill-opacity="0.2"/>
<path d="M1376.62 324.062C1377.55 324.062 1378.48 324.062 1379.44 324.062C1379.44 324.681 1379.44 325.3 1379.44 325.938C1378.51 325.938 1377.58 325.938 1376.62 325.938C1376.62 325.319 1376.62 324.7 1376.62 324.062Z" fill="white" fill-opacity="0.2"/>
</svg>
